<svg preserveAspectRatio="none" width="100%" height="100%" overflow="visible" style="display: block;" viewBox="0 0 28 28" fill="none" xmlns="http://www.w3.org/2000/svg">
<g id="AuditBoard">
<g id="Union">
<path d="M8.78288 8.60293C7.80117 9.58305 7.2681 10.6422 6.83003 11.812L5.50525 10.4894C5.96972 9.34065 6.66113 8.28677 7.56366 7.38569C9.32123 5.63097 11.6541 4.66667 14.1347 4.66667C16.6154 4.66667 18.9483 5.63097 20.7058 7.38569L28 14.6681L26.7808 15.8853L19.4866 8.60293C18.0563 7.17492 16.1562 6.38977 14.1347 6.38977C12.1133 6.38977 10.2132 7.17492 8.78288 8.60293Z" fill="white"/>
<path d="M22.1413 12.6607L18.7845 9.30406C17.5389 8.06047 15.8869 7.38071 14.1346 7.38071C12.3824 7.38071 10.7356 8.07101 9.48474 9.30406C8.48193 10.2894 7.82218 11.7069 7.66384 12.6449L9.30001 14.2784C9.29825 14.2415 9.29591 14.2046 9.29356 14.1677C9.28887 14.094 9.28418 14.0202 9.28418 13.9464C9.28418 12.6554 9.79087 11.4382 10.704 10.5213C11.617 9.60441 12.8363 9.10382 14.1346 9.10382C15.433 9.10382 16.647 9.60968 17.5653 10.5213L23.1705 16.128V16.1174L24.8595 17.8037L26.0787 16.5864L22.1413 12.6554V12.6607Z" fill="white"/>
<path d="M9.21534 18.2297L5.85854 14.873V14.8783L1.92117 10.9473L3.14038 9.73007L4.82934 11.4163V11.4057L10.4346 17.0124C11.3529 17.924 12.5669 18.4299 13.8652 18.4299C15.1636 18.4299 16.3828 17.9293 17.2959 17.0124C18.209 16.0955 18.7157 14.8783 18.7157 13.5873C18.7157 13.5135 18.711 13.4397 18.7063 13.366C18.704 13.3291 18.7016 13.2922 18.6999 13.2553L20.336 14.8888C20.1777 15.8268 19.518 17.2443 18.5151 18.2297C17.2643 19.4627 15.6175 20.153 13.8652 20.153C12.1129 20.153 10.4609 19.4733 9.21534 18.2297Z" fill="white"/>
<path d="M19.2171 18.9304C20.1988 17.9503 20.7319 16.8911 21.17 15.7213L22.4947 17.0439C22.0303 18.1927 21.3389 19.2466 20.4363 20.1476C18.6788 21.9024 16.3459 22.8667 13.8653 22.8667C11.3846 22.8667 9.05173 21.9024 7.29417 20.1476L0 12.8653L1.21921 11.648L8.51338 18.9304C9.94371 20.3584 11.8438 21.1436 13.8653 21.1436C15.8867 21.1436 17.7868 20.3584 19.2171 18.9304Z" fill="white"/>
</g>
</g>
</svg>
